<svg xmlns="http://www.w3.org/2000/svg" viewBox="0 0 48 48" width="1em" height="1em" focusable="false" aria-hidden="true" class="svgr-icons">
<path d="M46.5 37.5c0-.5-.4-.9-.9-.9H2.4a.9.9 0 100 1.8h43.2c.5 0 .9-.4.9-.9zm-11.77-4.63l.86 1.03h-1.72l.87-1.03zm-10.8-4.31l4.45 5.34h-8.9l4.44-5.34zM12.26 33.9l.93-1.11.93 1.11h-1.86zm-2.1-4.76l1.86 2.24-2.1 2.52h-3.7l3.93-4.76zm3.4-4.13l1.85 2.3-2.22 2.66-1.87-2.24 2.25-2.71zm3.7-4.45l1.88 2.27-2.56 3.07-1.84-2.3 2.51-3.04zm5.55-2.12l-2.5 2.98-1.89-2.27 2.5-3 1.89 2.29zm3.09-3.71l-1.92 2.3-1.9-2.3 1.91-2.3 1.9 2.3zm3.58 4.33l-1.92 2.3-2.42-2.92 1.92-2.3 2.42 2.92zm3.76 4.54l-1.89 2.36-2.62-3.18 1.92-2.3 2.59 3.12zm-5.68.59l2.64 3.2-2.4 3.01-2.71-3.25 2.47-2.96zm-6.07-1.36l2.48-2.98 2.42 2.93-2.48 2.96-2.42-2.91zm-1.38 7.48l-2.38-2.97 2.58-3.1 2.43 2.91-2.63 3.16zm-3.65 3.59l-2.1-2.52 2.2-2.63 2.37 2.97-1.81 2.18h-.66zm14.25 0l-1.74-2.09 2.4-3 2.19 2.64-2.04 2.45h-.8zm5.95-6.17l-1.93 2.32-2.2-2.68 1.88-2.36 2.25 2.72zm5.1 6.17h-3.85l-2.01-2.44 1.93-2.32 3.93 4.76zm-31 1.8H45.6l-6.59-7.96-1.17-1.42-2.27-2.74-1.17-1.42-2.57-3.1-1.16-1.4-2.42-2.93-.25-.3-4-4.83-4 4.82-.25.31-6.15 7.43-1.17 1.42-2.27 2.75-1.17 1.4L2.4 35.7h8.37z">
</svg>