<svg width="61" height="40" viewBox="0 0 61 40" fill="none" xmlns="http://www.w3.org/2000/svg">
<g filter="url(#filter0_d)">
<path fill-rule="evenodd" clip-rule="evenodd" d="M30.6103 27.8515C33.499 30.5248 37.2837 32.006 41.2103 31.9999C45.4094 31.9666 49.4252 30.2664 52.3827 27.2699C55.3403 24.2734 56.9999 20.2234 56.9999 16.0024C56.9999 11.7814 55.3403 7.73136 52.3827 4.73487C49.4252 1.73837 45.4094 0.0382433 41.2103 0.00490554C37.284 -0.00180684 33.4993 1.47867 30.6103 4.15135C28.9669 5.65197 27.6537 7.48142 26.7551 9.52223C25.8565 11.563 25.3923 13.7701 25.3923 16.0019C25.3923 18.2337 25.8565 20.4408 26.7551 22.4817C27.6537 24.5225 28.9669 26.3519 30.6103 27.8525V27.8515Z" fill="#E99F2B"/>
<path fill-rule="evenodd" clip-rule="evenodd" d="M54.9258 24.9127C54.9256 24.8479 54.938 24.7837 54.9626 24.7238C54.9872 24.6638 55.0233 24.6094 55.0689 24.5635C55.1145 24.5177 55.1686 24.4814 55.2282 24.4568C55.2879 24.4321 55.3518 24.4195 55.4162 24.4197C55.4828 24.4166 55.5494 24.4271 55.6118 24.4504C55.6743 24.4737 55.7315 24.5094 55.78 24.5554C55.8284 24.6014 55.8672 24.6568 55.8939 24.7182C55.9206 24.7796 55.9347 24.8457 55.9355 24.9127C55.9378 24.9819 55.926 25.0509 55.9008 25.1152C55.8755 25.1796 55.8373 25.2381 55.7886 25.287C55.7399 25.336 55.6818 25.3744 55.6177 25.3998C55.5536 25.4251 55.4851 25.437 55.4162 25.4347C55.3496 25.4339 55.2838 25.4197 55.2227 25.3928C55.1616 25.366 55.1066 25.327 55.0608 25.2783C55.0151 25.2296 54.9795 25.1722 54.9563 25.1093C54.9331 25.0465 54.9228 24.9797 54.9258 24.9127V24.9127ZM55.4162 25.3259C55.5242 25.3231 55.6269 25.2786 55.7031 25.2016C55.7793 25.1247 55.823 25.0212 55.8253 24.9127C55.8214 24.8074 55.7762 24.7078 55.6996 24.6358C55.623 24.5638 55.5211 24.5253 55.4162 24.5285C55.3156 24.5308 55.2197 24.572 55.1485 24.6436C55.0773 24.7151 55.0363 24.8115 55.034 24.9127C55.0354 25.017 55.0753 25.117 55.1459 25.1934C55.2165 25.2698 55.3129 25.317 55.4162 25.3259V25.3259ZM55.3616 25.1612H55.2534V24.6931H55.4431C55.4818 24.6887 55.5208 24.6983 55.5532 24.7201C55.6069 24.7471 55.6069 24.776 55.6069 24.8309C55.6069 24.8857 55.5801 24.9417 55.5255 24.9417L55.6357 25.1612H55.4987L55.4431 24.9686H55.3616V24.8848H55.4689C55.4957 24.8848 55.4957 24.8578 55.4957 24.8309C55.4957 24.8039 55.4957 24.804 55.4689 24.777H55.3587L55.3616 25.1612Z" fill="#E99F2B"/>
<path fill-rule="evenodd" clip-rule="evenodd" d="M35.7193 14.3115C35.6637 13.7347 35.5555 13.1859 35.4453 12.6091H25.7746C25.8905 12.0431 26.0363 11.4838 26.2114 10.9335H34.9827C34.7914 10.3547 34.5726 9.78719 34.3264 9.231H26.8954C27.1674 8.64887 27.4679 8.08138 27.7969 7.52852H33.3972C33.0382 6.94111 32.6367 6.38106 32.1959 5.85296H28.9971C29.4917 5.24536 30.0306 4.67561 30.6094 4.14846C28.3266 2.06717 25.4918 0.696836 22.4491 0.203865C19.4064 -0.289107 16.2868 0.11651 13.4691 1.37141C10.6513 2.62631 8.25657 4.6765 6.57568 7.27313C4.89478 9.86975 4 12.9011 4 15.999C4 19.097 4.89478 22.1283 6.57568 24.7249C8.25657 27.3216 10.6513 29.3718 13.4691 30.6267C16.2868 31.8816 19.4064 32.2871 22.4491 31.7942C25.4918 31.3012 28.3266 29.9309 30.6094 27.8496C31.1802 27.3322 31.7112 26.7721 32.1979 26.174H28.9971C28.5663 25.6289 28.1653 25.0606 27.7959 24.4716H33.3962C33.7487 23.9287 34.0593 23.3596 34.3254 22.7691H26.8944C26.6375 22.2223 26.4091 21.6624 26.2104 21.0916H34.9817C35.165 20.5324 35.3197 19.9642 35.4453 19.3891C35.6863 18.2799 35.8055 17.1474 35.8007 16.012C35.8007 15.4352 35.7739 14.8584 35.7193 14.3095V14.3115Z" fill="#BF0C24"/>
<path fill-rule="evenodd" clip-rule="evenodd" d="M54.9257 19.7212C54.9229 19.6544 54.9335 19.5878 54.9568 19.5252C54.9801 19.4626 55.0157 19.4054 55.0615 19.3569C55.1072 19.3084 55.1622 19.2697 55.2231 19.2429C55.284 19.2162 55.3497 19.202 55.4162 19.2013C55.4848 19.1988 55.5533 19.2105 55.6173 19.2357C55.6813 19.261 55.7394 19.2991 55.7881 19.3479C55.8368 19.3966 55.875 19.4549 55.9004 19.5191C55.9257 19.5834 55.9376 19.6521 55.9354 19.7212C55.9355 19.7898 55.9222 19.8577 55.8961 19.9211C55.8701 19.9845 55.8318 20.0421 55.7836 20.0905C55.7354 20.139 55.6781 20.1775 55.615 20.2037C55.552 20.2298 55.4844 20.2433 55.4162 20.2431C55.2829 20.2374 55.1571 20.1797 55.0656 20.0823C54.974 19.9848 54.9238 19.8552 54.9257 19.7212V19.7212ZM55.4162 20.1054C55.4687 20.1092 55.5214 20.1021 55.5711 20.0845C55.6207 20.0669 55.6662 20.0393 55.7048 20.0032C55.7433 19.9672 55.7741 19.9235 55.7951 19.875C55.8161 19.8265 55.827 19.7741 55.827 19.7212C55.827 19.6683 55.8161 19.6159 55.7951 19.5674C55.7741 19.5189 55.7433 19.4752 55.7048 19.4392C55.6662 19.4031 55.6207 19.3754 55.5711 19.3579C55.5214 19.3403 55.4687 19.3332 55.4162 19.337C55.3148 19.337 55.2176 19.3775 55.1459 19.4495C55.0742 19.5216 55.034 19.6193 55.034 19.7212C55.034 19.8231 55.0742 19.9208 55.1459 19.9928C55.2176 20.0649 55.3148 20.1054 55.4162 20.1054ZM55.3616 19.9408H55.2533V19.5017H55.5512C55.6048 19.5286 55.6048 19.5855 55.6048 19.6394C55.6009 19.663 55.5915 19.6853 55.5773 19.7046C55.5632 19.7238 55.5447 19.7394 55.5234 19.7501L55.6336 19.9427H55.4966L55.441 19.7781H55.3596V19.6943H55.4142C55.441 19.6943 55.4698 19.6942 55.4698 19.6673C55.4966 19.6673 55.4966 19.6403 55.4966 19.6124C55.4966 19.6053 55.4937 19.5984 55.4887 19.5933C55.4837 19.5883 55.4769 19.5855 55.4698 19.5855C55.4698 19.5565 55.441 19.5855 55.4142 19.5855H55.3596L55.3616 19.9408Z" fill="white"/>
<path fill-rule="evenodd" clip-rule="evenodd" d="M25.2274 20.6254C24.8105 20.7544 24.3786 20.8282 23.9427 20.8449C23.1217 20.8449 22.6312 20.325 22.6312 19.3889C22.6372 19.1885 22.6551 18.9885 22.6849 18.7901L22.7951 18.1595L22.8765 17.6376L23.6141 13.1338H25.2532L25.0616 14.1218H26.1011L25.8538 15.7694H24.8154L24.3785 18.4639C24.3598 18.5538 24.3508 18.6454 24.3517 18.7373C24.3517 19.0945 24.5155 19.2362 24.9256 19.2362C25.1 19.2335 25.2738 19.2147 25.4448 19.1803L25.2274 20.6254ZM30.5279 20.5715C29.9588 20.734 29.3702 20.8169 28.7786 20.818C28.3832 20.8665 27.9821 20.8239 27.6055 20.6935C27.229 20.563 26.8869 20.3482 26.6052 20.0652C26.3234 19.7822 26.1095 19.4385 25.9795 19.0601C25.8495 18.6817 25.8069 18.2784 25.8548 17.881C25.8548 15.6007 27.1117 13.9521 28.86 13.9521C29.1731 13.9347 29.4862 13.9852 29.7781 14.1002C30.07 14.2152 30.3339 14.3921 30.5517 14.6187C30.7696 14.8454 30.9364 15.1166 31.0407 15.4138C31.145 15.711 31.1844 16.0273 31.1563 16.3412C31.15 16.8867 31.0858 17.4301 30.9647 17.9619H27.5485C27.5292 18.0334 27.5202 18.1073 27.5217 18.1814C27.5217 18.9498 28.041 19.3341 29.0238 19.3341C29.639 19.3327 30.2461 19.1922 30.7999 18.9229L30.5279 20.5715ZM29.5162 16.6446V16.3143C29.5304 16.2015 29.5191 16.0869 29.4834 15.979C29.4477 15.8712 29.3883 15.7728 29.3097 15.691C29.2311 15.6092 29.1353 15.5462 29.0293 15.5066C28.9233 15.4669 28.8098 15.4518 28.6972 15.462C28.1511 15.462 27.7679 15.8732 27.6051 16.6446H29.5162ZM12.1137 20.7092H10.418L11.4028 14.474L9.1899 20.7092H8.01545L7.87844 14.502L6.84 20.7092H5.1731L6.51136 12.6069H8.9983L9.05193 17.6056L10.7188 12.6069H13.451L12.1137 20.7092ZM16.2387 17.7703C16.1304 17.7499 16.0203 17.7408 15.9101 17.7433C14.9272 17.7433 14.4348 18.1276 14.4348 18.7313C14.4258 18.8191 14.4354 18.9078 14.4631 18.9916C14.4908 19.0754 14.5359 19.1524 14.5954 19.2173C14.655 19.2822 14.7276 19.3337 14.8084 19.3682C14.8892 19.4028 14.9764 19.4198 15.0642 19.4179C15.8833 19.4209 16.2109 18.7293 16.2387 17.7723V17.7703ZM17.6058 20.7092H16.1305L16.1573 20.0216C15.9507 20.2998 15.676 20.5196 15.3599 20.6595C15.0438 20.7994 14.6971 20.8547 14.3534 20.82C14.1337 20.804 13.9194 20.7443 13.723 20.6441C13.5266 20.5438 13.352 20.4052 13.2096 20.2364C13.0671 20.0675 12.9596 19.8718 12.8933 19.6607C12.827 19.4495 12.8033 19.2272 12.8235 19.0067C12.8268 18.7182 12.8723 18.4317 12.9585 18.1564C13.2325 17.1395 14.2422 16.5089 15.8009 16.4809C15.9925 16.4809 16.2913 16.4809 16.5653 16.5079C16.6056 16.3651 16.624 16.2171 16.6199 16.0688C16.6199 15.6277 16.2645 15.4899 15.4733 15.4899C14.9907 15.4875 14.5108 15.5623 14.0516 15.7115L13.8064 15.7664L13.6962 15.7933L13.9434 14.3104C14.5853 14.086 15.2585 13.9655 15.9379 13.9531C17.4112 13.9531 18.2054 14.6407 18.2054 15.9041C18.2224 16.336 18.1945 16.7684 18.122 17.1944L17.7398 19.5546L17.6862 19.9677L17.6594 20.298L17.6326 20.5176L17.6058 20.7092ZM38.7779 14.1717C39.3165 14.1903 39.8422 14.3418 40.3088 14.6128L40.6066 12.8544C40.4642 12.7914 40.3184 12.7364 40.1698 12.6897L39.4858 12.4971C38.5967 12.3308 37.6791 12.4168 36.836 12.7456C36.462 12.9921 36.1219 13.2871 35.8244 13.6228L35.606 13.5679L33.8587 14.8044L33.9401 14.1168H32.1362L31.0719 20.7032H32.7924L33.4199 17.1625C33.4199 17.1625 33.6671 16.6635 33.7753 16.5029C33.8812 16.3522 34.0267 16.234 34.1955 16.1614C34.3642 16.0888 34.5497 16.0647 34.7313 16.0917H34.8683C34.8113 16.5097 34.7841 16.9312 34.7869 17.3531C34.7869 19.4957 35.9882 20.8459 37.8457 20.8459C38.3547 20.8427 38.8609 20.7689 39.3498 20.6264L39.6476 18.7592C39.2089 19.025 38.7109 19.176 38.1991 19.1983C37.1895 19.1983 36.5888 18.4299 36.5888 17.2224C36.5918 15.4361 37.4933 14.1737 38.7779 14.1737V14.1717ZM53.2865 12.6069L52.9043 14.9131C52.7522 14.6309 52.5271 14.3952 52.2527 14.2309C51.9784 14.0667 51.6649 13.98 51.3456 13.98C50.8653 13.9946 50.3985 14.1437 49.9979 14.4104C49.5973 14.6772 49.2788 15.051 49.0781 15.4899V15.463L47.986 14.8054L48.0962 14.1178H46.2655L45.2271 20.7102H46.9208L47.4946 17.1675C47.4946 17.1675 47.9334 16.6685 48.0406 16.5079C48.1323 16.3894 48.2478 16.2916 48.3795 16.2207C48.5111 16.1499 48.6561 16.1077 48.8051 16.0967C48.5993 16.7254 48.4987 17.384 48.5072 18.0457C48.5072 19.6933 49.3531 20.7921 50.6099 20.7921C50.9135 20.7988 51.2145 20.7354 51.4899 20.6068C51.7653 20.4783 52.0077 20.288 52.1984 20.0506L52.115 20.7102H53.7273L55.0388 12.6079L53.2865 12.6069ZM51.1818 19.1424C50.608 19.1424 50.3092 18.7033 50.3092 17.8521C50.3092 16.5607 50.8552 15.6277 51.6474 15.6277C52.2431 15.6277 52.5489 16.0957 52.5489 16.918C52.5479 18.2383 52.0018 19.1454 51.1808 19.1454L51.1818 19.1424ZM43.2871 17.7703C43.1788 17.7499 43.0687 17.7408 42.9585 17.7433C41.9737 17.7433 41.4833 18.1276 41.4833 18.7313C41.4741 18.819 41.4836 18.9076 41.5111 18.9913C41.5386 19.075 41.5836 19.1519 41.6429 19.2169C41.7022 19.2818 41.7746 19.3333 41.8553 19.3679C41.9359 19.4026 42.023 19.4196 42.1107 19.4179C42.9317 19.4209 43.2594 18.7293 43.2871 17.7723V17.7703ZM44.6522 20.7092H43.1501L43.2077 20.0266C43.0015 20.3047 42.7271 20.5243 42.4113 20.6642C42.0956 20.8041 41.7492 20.8595 41.4058 20.825C41.1814 20.8157 40.9612 20.7608 40.7584 20.6636C40.5557 20.5664 40.3746 20.429 40.2262 20.2595C40.0777 20.0901 39.965 19.8921 39.8947 19.6777C39.8245 19.4632 39.7981 19.2366 39.8174 19.0117C39.8174 17.4469 40.9918 16.4859 42.8494 16.4859C43.0955 16.4823 43.3417 16.4913 43.587 16.5129C43.6346 16.371 43.6626 16.2233 43.6704 16.0738C43.6704 15.6327 43.315 15.4969 42.4959 15.4969C42.0136 15.496 41.534 15.5701 41.0743 15.7165L40.8558 15.7714L40.7456 15.7983L40.9908 14.3154C41.6328 14.0914 42.3059 13.9708 42.9854 13.9581C44.4606 13.9581 45.2251 14.6457 45.2251 15.9091C45.2573 16.3409 45.23 16.7752 45.1437 17.1994L44.7883 19.5616L44.7346 19.9727L44.679 20.303L44.6522 20.5226V20.7152V20.7092ZM21.1838 15.5199C21.6138 15.5222 22.0431 15.5586 22.4674 15.6287L22.7126 14.0908C22.2222 14.037 21.566 13.9531 21.1828 13.9531C19.2707 13.9531 18.6412 14.998 18.6412 16.2045C18.6348 16.605 18.756 16.997 18.9871 17.3233C19.2183 17.6496 19.5473 17.8929 19.9259 18.0178C20.6099 18.3481 20.7201 18.402 20.7201 18.7054C20.7201 19.1165 20.3667 19.363 19.7105 19.363C19.1791 19.3636 18.6516 19.271 18.1518 19.0895L17.9602 20.5994L17.987 20.6264L18.3156 20.6813C18.4604 20.7167 18.6068 20.7447 18.7544 20.7651C19.1634 20.792 19.5189 20.819 19.7373 20.819C21.6494 20.819 22.4426 20.0775 22.4426 18.6235C22.4547 18.2187 22.336 17.8209 22.1045 17.4896C21.8729 17.1583 21.5408 16.9112 21.158 16.7853C20.4203 16.455 20.3369 16.4011 20.3369 16.0977C20.3369 15.7943 20.6645 15.5209 21.1838 15.5209V15.5199Z" fill="#082C5C"/>
<path fill-rule="evenodd" clip-rule="evenodd" d="M41.0783 12.3335L40.7804 14.0919C40.3141 13.8214 39.7887 13.6706 39.2506 13.6528C37.9659 13.6528 37.0664 14.9142 37.0664 16.7005C37.0664 17.937 37.6621 18.6784 38.6787 18.6784C39.1856 18.653 39.6801 18.5124 40.1252 18.2673L39.8274 20.1055C39.34 20.2555 38.8348 20.339 38.3253 20.3539C36.4678 20.3539 35.3181 19.0068 35.3181 16.8382C35.3181 13.9532 36.9066 11.9214 39.1702 11.9214C39.4373 11.9167 39.704 11.9448 39.9644 12.0052L40.6484 12.1699C40.8688 12.2517 40.9224 12.2787 41.0872 12.3325L41.0783 12.3335ZM35.5594 13.5431H35.3956C34.8218 13.5431 34.4941 13.8185 33.9739 14.6148L34.1377 13.5979H32.579L31.5148 20.1903H33.2353C33.8647 16.1527 34.0295 15.4661 34.8476 15.4661H34.9578C35.0835 14.8056 35.3038 14.1669 35.612 13.57L35.5594 13.5431ZM25.6683 20.1055C25.2752 20.2519 24.8594 20.3269 24.4402 20.327C24.2491 20.3448 24.0565 20.3186 23.8769 20.2504C23.6974 20.1823 23.5356 20.074 23.4039 19.9337C23.2722 19.7934 23.1739 19.6248 23.1166 19.4407C23.0593 19.2566 23.0444 19.0618 23.0731 18.871C23.0791 18.6778 23.0974 18.4851 23.1277 18.2942L23.2379 17.6346L23.3213 17.1147L24.057 12.609H25.7526L25.561 13.5969H26.4337L26.2153 15.2176H25.3406L24.877 17.9639C24.856 18.0541 24.847 18.1467 24.8502 18.2393C24.8502 18.5677 25.014 18.7054 25.424 18.7054C25.5807 18.7194 25.7386 18.7007 25.8877 18.6505L25.6693 20.1044L25.6683 20.1055ZM19.0851 15.6856C19.08 16.0888 19.2011 16.4834 19.4312 16.8136C19.6614 17.1438 19.9891 17.393 20.3678 17.5258C21.0786 17.8541 21.1888 17.9649 21.1888 18.2383C21.1888 18.6515 20.891 18.8441 20.204 18.8441C19.6844 18.84 19.1685 18.7562 18.6741 18.5956L18.4289 20.1055L18.5103 20.1344L18.8081 20.1893C18.9596 20.2276 19.1155 20.2457 19.2718 20.2432C19.5797 20.2853 19.8903 20.304 20.201 20.2991C22.0049 20.2991 22.8527 19.6115 22.8527 18.1036C22.8787 17.7071 22.7752 17.3128 22.5581 16.9807C22.3409 16.6486 22.0219 16.3967 21.6495 16.2634C20.9118 15.9331 20.8304 15.8523 20.8304 15.5489C20.8304 15.1917 21.1282 15.027 21.6782 15.027C22.0889 15.0304 22.499 15.0584 22.9063 15.1108L23.1536 13.6009C22.6565 13.5161 22.1536 13.47 21.6495 13.4632C19.7334 13.4622 19.0523 14.4771 19.0811 15.6866L19.0851 15.6856ZM54.1652 20.1893H52.5529L52.6343 19.5566C52.4389 19.7854 52.1956 19.9681 51.9219 20.0916C51.6482 20.2151 51.3508 20.2764 51.0508 20.2712C49.7939 20.2712 48.9729 19.2013 48.9729 17.5538C48.9729 15.3583 50.2566 13.4892 51.7597 13.4892C52.0867 13.4908 52.408 13.5746 52.6946 13.7328C52.9812 13.8911 53.2239 14.1188 53.4007 14.3953L53.783 12.087H55.4737L54.1622 20.1893H54.1652ZM51.6505 18.6515C52.4447 18.6515 52.9887 17.7174 52.9887 16.4271C52.9887 15.5748 52.6909 15.1297 52.0873 15.1297C51.3228 15.1297 50.749 16.0359 50.749 17.3252C50.7464 18.2094 51.0459 18.6518 51.6475 18.6525L51.6505 18.6515ZM30.9141 20.0486C30.3406 20.2355 29.7409 20.3285 29.138 20.324C27.224 20.324 26.2411 19.3071 26.2411 17.3582C26.2411 15.1048 27.498 13.4293 29.2195 13.4293C29.5342 13.4098 29.8494 13.4587 30.1437 13.5727C30.4379 13.6866 30.7044 13.8629 30.9248 14.0895C31.1452 14.3162 31.3145 14.588 31.4211 14.8863C31.5277 15.1846 31.5691 15.5025 31.5426 15.8183C31.5379 16.3745 31.4645 16.9279 31.3242 17.4659H27.9348C27.9145 17.528 27.9054 17.5932 27.908 17.6585C27.908 18.4289 28.4272 18.8132 29.4101 18.8132C30.0269 18.8244 30.6369 18.6825 31.1862 18.4L30.9141 20.0486ZM29.9561 16.1217V15.7944C29.9703 15.6817 29.9591 15.5672 29.9233 15.4594C29.8876 15.3516 29.8282 15.2533 29.7496 15.1716C29.671 15.09 29.5751 15.0272 29.4691 14.9878C29.3631 14.9484 29.2496 14.9335 29.137 14.9442C28.591 14.9442 28.2078 15.3553 28.045 16.1247L29.9561 16.1217ZM12.5506 20.1853H10.8569L11.8397 13.9502L9.62685 20.1853H8.45237L8.31536 14.0071L7.27789 20.1853H5.68945L7.02772 12.0831H9.48784L9.56925 17.1087L11.2083 12.0831H13.8889L12.5506 20.1853ZM16.7858 17.2464C16.622 17.2464 16.5406 17.2194 16.4036 17.2194C15.4475 17.2194 14.9551 17.5767 14.9551 18.2344C14.9432 18.3186 14.9499 18.4044 14.9748 18.4857C14.9996 18.567 15.042 18.6418 15.0988 18.7048C15.1557 18.7677 15.2257 18.8174 15.3038 18.8501C15.3819 18.8828 15.4662 18.8978 15.5508 18.894C16.2666 18.899 16.755 18.2383 16.7858 17.2504V17.2464ZM18.0456 20.1853H16.624L16.6508 19.4977C16.4365 19.7672 16.1605 19.9805 15.8464 20.1196C15.5322 20.2586 15.1894 20.3191 14.8469 20.2961C14.6242 20.2932 14.4046 20.2432 14.2024 20.1495C14.0001 20.0557 13.8198 19.9203 13.673 19.752C13.5262 19.5836 13.4162 19.3861 13.3503 19.1723C13.2844 18.9585 13.2639 18.7331 13.2902 18.5108C13.2902 16.8901 14.3823 15.956 16.2954 15.956C16.487 15.956 16.7342 15.983 17.0062 16.0109C17.0443 15.8773 17.0624 15.7387 17.0598 15.5998C17.0598 15.1607 16.762 15.001 15.9678 15.001C15.4895 14.9947 15.0124 15.05 14.5481 15.1657L14.3009 15.2475L14.1371 15.2765L14.3843 13.7935C15.0465 13.579 15.7376 13.4676 16.4334 13.4632C17.9087 13.4632 18.7009 14.1209 18.7009 15.3853C18.6906 15.8277 18.6448 16.2685 18.5639 16.7035L18.1817 19.0387L18.1271 19.4499L18.1002 19.7802L18.0735 20.0267L18.0466 20.1913L18.0456 20.1853ZM43.8372 17.2464C43.6456 17.2464 43.5632 17.2194 43.455 17.2194C42.4702 17.2194 41.9778 17.5767 41.9778 18.2344C41.9688 18.3209 41.9787 18.4083 42.0068 18.4906C42.0348 18.5729 42.0804 18.6481 42.1403 18.7108C42.2002 18.7736 42.273 18.8225 42.3537 18.8542C42.4343 18.8858 42.5208 18.8994 42.6072 18.894C43.2912 18.894 43.8084 18.2344 43.8372 17.2464ZM45.0941 20.1853H43.6724L43.6992 19.4977C43.4848 19.7671 43.2088 19.9803 42.8947 20.1193C42.5806 20.2583 42.2378 20.319 41.8954 20.2961C41.6727 20.2932 41.4531 20.2432 41.2508 20.1495C41.0486 20.0557 40.8682 19.9203 40.7214 19.752C40.5746 19.5836 40.4647 19.3861 40.3988 19.1723C40.3328 18.9585 40.3123 18.7331 40.3387 18.5108C40.3387 16.8901 41.4307 15.956 43.3438 15.956C43.5354 15.956 43.7807 15.983 44.0279 16.0109C44.0713 15.8776 44.0986 15.7396 44.1093 15.5998C44.1093 15.1607 43.8114 15.001 43.0172 15.001C42.5301 14.9948 42.0441 15.0501 41.5707 15.1657L41.3503 15.2475L41.1865 15.2765L41.4337 13.7935C42.096 13.579 42.787 13.4676 43.4828 13.4632C44.9581 13.4632 45.7226 14.1209 45.7226 15.3853C45.7265 15.8285 45.6806 16.2707 45.5855 16.7035L45.2301 19.0387L45.1765 19.4499L45.1219 19.7802L45.0951 20.0267V20.1913L45.0941 20.1853ZM49.6828 13.539H49.517C48.9451 13.539 48.6175 13.8145 48.0973 14.6109L48.2611 13.5939H46.7024L45.664 20.1863H47.3596C47.9871 16.1487 48.1539 15.4621 48.9719 15.4621H49.0801C49.2056 14.8012 49.4267 14.1624 49.7364 13.566L49.6828 13.539Z" fill="white"/>
</g>
<defs>
<filter id="filter0_d" x="0" y="0" width="60.9999" height="39.9999" filterUnits="userSpaceOnUse" color-interpolation-filters="sRGB">
<feFlood flood-opacity="0" result="BackgroundImageFix"/>
<feColorMatrix in="SourceAlpha" type="matrix" values="0 0 0 0 0 0 0 0 0 0 0 0 0 0 0 0 0 0 127 0" result="hardAlpha"/>
<feOffset dy="4"/>
<feGaussianBlur stdDeviation="2"/>
<feComposite in2="hardAlpha" operator="out"/>
<feColorMatrix type="matrix" values="0 0 0 0 0 0 0 0 0 0 0 0 0 0 0 0 0 0 0.25 0"/>
<feBlend mode="normal" in2="BackgroundImageFix" result="effect1_dropShadow"/>
<feBlend mode="normal" in="SourceGraphic" in2="effect1_dropShadow" result="shape"/>
</filter>
</defs>
</svg>
